<mxfile host="app.diagrams.net" modified="2021-09-21T02:41:26.367Z" agent="5.0 (Windows NT 10.0; Win64; x64) AppleWebKit/537.36 (KHTML, like Gecko) Chrome/93.0.4577.82 Safari/537.36" etag="JTi-aOSixakv-HGVGBML" version="15.2.9" type="github">
  <diagram id="R2lEEEUBdFMjLlhIrx00" name="Page-1">
    <mxGraphModel dx="3125" dy="1843" grid="1" gridSize="10" guides="1" tooltips="1" connect="1" arrows="1" fold="1" page="0" pageScale="1" pageWidth="850" pageHeight="1100" math="0" shadow="0" extFonts="Permanent Marker^https://fonts.googleapis.com/css?family=Permanent+Marker">
      <root>
        <mxCell id="0" />
        <mxCell id="1" parent="0" />
        <mxCell id="M-KNJrDklRf5NZTeeunS-158" value="User&lt;br&gt;" style="shape=umlActor;verticalLabelPosition=bottom;verticalAlign=top;html=1;outlineConnect=0;sketch=0;direction=east;" vertex="1" parent="1">
          <mxGeometry x="2410" y="-135" width="30" height="60" as="geometry" />
        </mxCell>
        <mxCell id="M-KNJrDklRf5NZTeeunS-159" value="NavigateFromSpecificUrl&lt;br&gt;(navigate-from-specific-url-guard.guard.ts)" style="rounded=0;whiteSpace=wrap;html=1;sketch=0;direction=east;" vertex="1" parent="1">
          <mxGeometry x="1805" y="-150" width="250" height="60" as="geometry" />
        </mxCell>
        <mxCell id="M-KNJrDklRf5NZTeeunS-160" value="Change password" style="endArrow=classic;html=1;fontSize=12;exitX=0.5;exitY=0;exitDx=0;exitDy=0;exitPerimeter=0;sketch=0;entryX=1;entryY=0.25;entryDx=0;entryDy=0;" edge="1" parent="1" source="M-KNJrDklRf5NZTeeunS-158" target="M-KNJrDklRf5NZTeeunS-159">
          <mxGeometry relative="1" as="geometry">
            <mxPoint x="1205" y="-225" as="sourcePoint" />
            <mxPoint x="2220" y="-40" as="targetPoint" />
          </mxGeometry>
        </mxCell>
        <mxCell id="M-KNJrDklRf5NZTeeunS-161" value="Previous URL is &quot;/auth/login&quot;?" style="rhombus;whiteSpace=wrap;html=1;sketch=0;direction=east;" vertex="1" parent="1">
          <mxGeometry x="1377.5" y="-165" width="140" height="90" as="geometry" />
        </mxCell>
        <mxCell id="M-KNJrDklRf5NZTeeunS-162" value="Validate previous URL is /auth/login" style="endArrow=classic;html=1;fontSize=12;entryX=1;entryY=0.5;entryDx=0;entryDy=0;exitX=0;exitY=0.5;exitDx=0;exitDy=0;sketch=0;" edge="1" parent="1" source="M-KNJrDklRf5NZTeeunS-159" target="M-KNJrDklRf5NZTeeunS-161">
          <mxGeometry relative="1" as="geometry">
            <mxPoint x="1365" y="35" as="sourcePoint" />
            <mxPoint x="1605" y="35" as="targetPoint" />
          </mxGeometry>
        </mxCell>
        <mxCell id="M-KNJrDklRf5NZTeeunS-163" value="Change Password Page" style="ellipse;whiteSpace=wrap;html=1;sketch=0;direction=east;" vertex="1" parent="1">
          <mxGeometry x="1380" y="-385" width="135" height="80" as="geometry" />
        </mxCell>
        <mxCell id="M-KNJrDklRf5NZTeeunS-165" value="Navigate to Change Password Page" style="endArrow=classic;html=1;startArrow=none;sketch=0;entryX=0.5;entryY=1;entryDx=0;entryDy=0;exitX=0.5;exitY=0;exitDx=0;exitDy=0;" edge="1" parent="1" source="M-KNJrDklRf5NZTeeunS-161" target="M-KNJrDklRf5NZTeeunS-163">
          <mxGeometry width="50" height="50" relative="1" as="geometry">
            <mxPoint x="1445" y="35" as="sourcePoint" />
            <mxPoint x="1535" y="-55" as="targetPoint" />
          </mxGeometry>
        </mxCell>
        <mxCell id="M-KNJrDklRf5NZTeeunS-171" value="NavigateFromSpecificUrl&lt;br&gt;(inavigate-from-specific-url-guard.guard.ts)" style="rounded=0;whiteSpace=wrap;html=1;sketch=0;direction=east;" vertex="1" parent="1">
          <mxGeometry x="1815" y="115" width="230" height="60" as="geometry" />
        </mxCell>
        <mxCell id="M-KNJrDklRf5NZTeeunS-172" value="Previous URL is &quot;/auth/reset-password&quot;?" style="rhombus;whiteSpace=wrap;html=1;sketch=0;direction=east;" vertex="1" parent="1">
          <mxGeometry x="1380" y="110" width="140" height="90" as="geometry" />
        </mxCell>
        <mxCell id="M-KNJrDklRf5NZTeeunS-173" value="Validate previous URL is&amp;nbsp; /auth/reset-password" style="endArrow=classic;html=1;fontSize=12;exitX=0;exitY=0.5;exitDx=0;exitDy=0;sketch=0;entryX=1;entryY=0.5;entryDx=0;entryDy=0;" edge="1" parent="1" source="M-KNJrDklRf5NZTeeunS-171" target="M-KNJrDklRf5NZTeeunS-172">
          <mxGeometry relative="1" as="geometry">
            <mxPoint x="1365" y="280" as="sourcePoint" />
            <mxPoint x="1560" y="180" as="targetPoint" />
          </mxGeometry>
        </mxCell>
        <mxCell id="M-KNJrDklRf5NZTeeunS-174" value="Create New Password Page" style="ellipse;whiteSpace=wrap;html=1;sketch=0;direction=east;" vertex="1" parent="1">
          <mxGeometry x="1365" y="310" width="170" height="80" as="geometry" />
        </mxCell>
        <mxCell id="M-KNJrDklRf5NZTeeunS-175" value="" style="endArrow=classic;html=1;startArrow=none;entryX=0.5;entryY=0;entryDx=0;entryDy=0;sketch=0;exitX=0.5;exitY=1;exitDx=0;exitDy=0;" edge="1" parent="1" source="M-KNJrDklRf5NZTeeunS-172" target="M-KNJrDklRf5NZTeeunS-174">
          <mxGeometry width="50" height="50" relative="1" as="geometry">
            <mxPoint x="1370" y="240" as="sourcePoint" />
            <mxPoint x="2225" y="305" as="targetPoint" />
          </mxGeometry>
        </mxCell>
        <mxCell id="M-KNJrDklRf5NZTeeunS-176" value="Navigate to create new password page" style="edgeLabel;html=1;align=center;verticalAlign=middle;resizable=0;points=[];fontSize=12;" vertex="1" connectable="0" parent="M-KNJrDklRf5NZTeeunS-175">
          <mxGeometry x="-0.184" y="-4" relative="1" as="geometry">
            <mxPoint x="27" as="offset" />
          </mxGeometry>
        </mxCell>
        <mxCell id="M-KNJrDklRf5NZTeeunS-177" value="Yes" style="text;html=1;strokeColor=none;fillColor=none;align=center;verticalAlign=middle;whiteSpace=wrap;rounded=0;sketch=0;direction=east;" vertex="1" parent="1">
          <mxGeometry x="1310" y="200" width="180" height="15" as="geometry" />
        </mxCell>
        <mxCell id="M-KNJrDklRf5NZTeeunS-180" value="No" style="text;html=1;strokeColor=none;fillColor=none;align=center;verticalAlign=middle;whiteSpace=wrap;rounded=0;sketch=0;direction=east;" vertex="1" parent="1">
          <mxGeometry x="1405" y="70" width="180" height="30" as="geometry" />
        </mxCell>
        <mxCell id="M-KNJrDklRf5NZTeeunS-181" value="Create New Pass word" style="endArrow=classic;html=1;fontSize=12;entryX=1;entryY=0.5;entryDx=0;entryDy=0;exitX=1;exitY=1;exitDx=0;exitDy=0;sketch=0;exitPerimeter=0;" edge="1" parent="1" source="M-KNJrDklRf5NZTeeunS-158" target="M-KNJrDklRf5NZTeeunS-171">
          <mxGeometry relative="1" as="geometry">
            <mxPoint x="1005" y="-105" as="sourcePoint" />
            <mxPoint x="1245" y="-105" as="targetPoint" />
          </mxGeometry>
        </mxCell>
        <mxCell id="M-KNJrDklRf5NZTeeunS-182" value="Reset password" style="endArrow=classic;html=1;fontSize=12;entryX=1;entryY=0.75;entryDx=0;entryDy=0;exitX=0.5;exitY=0.5;exitDx=0;exitDy=0;sketch=0;exitPerimeter=0;" edge="1" parent="1" source="M-KNJrDklRf5NZTeeunS-158" target="M-KNJrDklRf5NZTeeunS-159">
          <mxGeometry relative="1" as="geometry">
            <mxPoint x="997.5" y="-129" as="sourcePoint" />
            <mxPoint x="1242.93" y="-127.01999999999998" as="targetPoint" />
          </mxGeometry>
        </mxCell>
        <mxCell id="M-KNJrDklRf5NZTeeunS-3" value="" style="endArrow=classic;html=1;exitX=0.5;exitY=0.5;exitDx=0;exitDy=0;exitPerimeter=0;entryX=0;entryY=0.5;entryDx=0;entryDy=0;" edge="1" parent="1" source="M-KNJrDklRf5NZTeeunS-4" target="M-KNJrDklRf5NZTeeunS-6">
          <mxGeometry width="50" height="50" relative="1" as="geometry">
            <mxPoint x="-30" y="80" as="sourcePoint" />
            <mxPoint x="-50" y="80" as="targetPoint" />
          </mxGeometry>
        </mxCell>
        <mxCell id="M-KNJrDklRf5NZTeeunS-4" value="User&lt;br&gt;" style="shape=umlActor;verticalLabelPosition=bottom;verticalAlign=top;html=1;outlineConnect=0;" vertex="1" parent="1">
          <mxGeometry x="-220" y="50" width="30" height="60" as="geometry" />
        </mxCell>
        <mxCell id="M-KNJrDklRf5NZTeeunS-5" value="Start OCM" style="text;html=1;strokeColor=none;fillColor=none;align=center;verticalAlign=middle;whiteSpace=wrap;rounded=0;" vertex="1" parent="1">
          <mxGeometry x="-160" y="90" width="70" height="20" as="geometry" />
        </mxCell>
        <mxCell id="M-KNJrDklRf5NZTeeunS-6" value="Welcome-Guard&lt;br&gt;(welcome-page.guard.ts)" style="rounded=0;whiteSpace=wrap;html=1;" vertex="1" parent="1">
          <mxGeometry x="-70" y="50" width="170" height="60" as="geometry" />
        </mxCell>
        <mxCell id="M-KNJrDklRf5NZTeeunS-7" value="" style="endArrow=classic;html=1;entryX=0;entryY=0.5;entryDx=0;entryDy=0;exitX=1;exitY=0.5;exitDx=0;exitDy=0;" edge="1" parent="1" source="M-KNJrDklRf5NZTeeunS-41" target="M-KNJrDklRf5NZTeeunS-9">
          <mxGeometry width="50" height="50" relative="1" as="geometry">
            <mxPoint x="480" y="80" as="sourcePoint" />
            <mxPoint x="600" y="80" as="targetPoint" />
          </mxGeometry>
        </mxCell>
        <mxCell id="M-KNJrDklRf5NZTeeunS-54" value="Text" style="edgeLabel;html=1;align=center;verticalAlign=middle;resizable=0;points=[];" vertex="1" connectable="0" parent="M-KNJrDklRf5NZTeeunS-7">
          <mxGeometry x="-0.2" y="-3" relative="1" as="geometry">
            <mxPoint as="offset" />
          </mxGeometry>
        </mxCell>
        <mxCell id="M-KNJrDklRf5NZTeeunS-55" value="Text" style="edgeLabel;html=1;align=center;verticalAlign=middle;resizable=0;points=[];" vertex="1" connectable="0" parent="M-KNJrDklRf5NZTeeunS-7">
          <mxGeometry x="-0.1673" y="-5" relative="1" as="geometry">
            <mxPoint as="offset" />
          </mxGeometry>
        </mxCell>
        <mxCell id="M-KNJrDklRf5NZTeeunS-56" value="&lt;span style=&quot;font-size: 12px;&quot;&gt;Navigate to Login page&lt;/span&gt;" style="edgeLabel;html=1;align=center;verticalAlign=middle;resizable=0;points=[];fontSize=12;" vertex="1" connectable="0" parent="M-KNJrDklRf5NZTeeunS-7">
          <mxGeometry x="-0.1429" y="-2" relative="1" as="geometry">
            <mxPoint as="offset" />
          </mxGeometry>
        </mxCell>
        <mxCell id="M-KNJrDklRf5NZTeeunS-9" value="Login-Guard&lt;br&gt;(authentication.guard.ts)&lt;br&gt;" style="rounded=0;whiteSpace=wrap;html=1;" vertex="1" parent="1">
          <mxGeometry x="680" y="50" width="140" height="60" as="geometry" />
        </mxCell>
        <mxCell id="M-KNJrDklRf5NZTeeunS-12" value="Welcome-Page" style="ellipse;whiteSpace=wrap;html=1;" vertex="1" parent="1">
          <mxGeometry x="305" y="260" width="120" height="80" as="geometry" />
        </mxCell>
        <mxCell id="M-KNJrDklRf5NZTeeunS-16" value="Login-Page" style="ellipse;whiteSpace=wrap;html=1;" vertex="1" parent="1">
          <mxGeometry x="690" y="650" width="120" height="80" as="geometry" />
        </mxCell>
        <mxCell id="M-KNJrDklRf5NZTeeunS-23" value="Response is &quot;up&quot;?" style="rhombus;whiteSpace=wrap;html=1;" vertex="1" parent="1">
          <mxGeometry x="680" y="190" width="140" height="90" as="geometry" />
        </mxCell>
        <mxCell id="M-KNJrDklRf5NZTeeunS-25" value="&lt;font style=&quot;font-size: 12px&quot;&gt;Call /ocmconsole/up&lt;/font&gt;" style="endArrow=classic;html=1;entryX=0.5;entryY=0;entryDx=0;entryDy=0;exitX=0.5;exitY=1;exitDx=0;exitDy=0;" edge="1" parent="1" source="M-KNJrDklRf5NZTeeunS-9" target="M-KNJrDklRf5NZTeeunS-23">
          <mxGeometry width="50" height="50" relative="1" as="geometry">
            <mxPoint x="445" y="310" as="sourcePoint" />
            <mxPoint x="690" y="360" as="targetPoint" />
          </mxGeometry>
        </mxCell>
        <mxCell id="M-KNJrDklRf5NZTeeunS-26" value="" style="endArrow=classic;html=1;exitX=0.5;exitY=1;exitDx=0;exitDy=0;entryX=0.5;entryY=0;entryDx=0;entryDy=0;" edge="1" parent="1" source="M-KNJrDklRf5NZTeeunS-23" target="M-KNJrDklRf5NZTeeunS-30">
          <mxGeometry width="50" height="50" relative="1" as="geometry">
            <mxPoint x="740" y="340" as="sourcePoint" />
            <mxPoint x="750" y="360" as="targetPoint" />
          </mxGeometry>
        </mxCell>
        <mxCell id="M-KNJrDklRf5NZTeeunS-43" value="&lt;span style=&quot;font-size: 12px&quot;&gt;Call api&lt;br&gt;&amp;nbsp;to check existing user&lt;/span&gt;" style="edgeLabel;html=1;align=center;verticalAlign=middle;resizable=0;points=[];" vertex="1" connectable="0" parent="M-KNJrDklRf5NZTeeunS-26">
          <mxGeometry x="-0.4" y="-4" relative="1" as="geometry">
            <mxPoint x="4" y="15" as="offset" />
          </mxGeometry>
        </mxCell>
        <mxCell id="M-KNJrDklRf5NZTeeunS-27" value="Yes" style="text;html=1;strokeColor=none;fillColor=none;align=center;verticalAlign=middle;whiteSpace=wrap;rounded=0;" vertex="1" parent="1">
          <mxGeometry x="690" y="480" width="180" height="20" as="geometry" />
        </mxCell>
        <mxCell id="M-KNJrDklRf5NZTeeunS-28" value="No" style="text;html=1;strokeColor=none;fillColor=none;align=center;verticalAlign=middle;whiteSpace=wrap;rounded=0;" vertex="1" parent="1">
          <mxGeometry x="560" y="210" width="180" height="20" as="geometry" />
        </mxCell>
        <mxCell id="M-KNJrDklRf5NZTeeunS-29" value="" style="endArrow=classic;html=1;exitX=0;exitY=0.5;exitDx=0;exitDy=0;entryX=1;entryY=0;entryDx=0;entryDy=0;" edge="1" parent="1" source="M-KNJrDklRf5NZTeeunS-23" target="M-KNJrDklRf5NZTeeunS-12">
          <mxGeometry width="50" height="50" relative="1" as="geometry">
            <mxPoint x="760" y="290" as="sourcePoint" />
            <mxPoint x="930" y="235" as="targetPoint" />
          </mxGeometry>
        </mxCell>
        <mxCell id="M-KNJrDklRf5NZTeeunS-45" value="&lt;span style=&quot;font-size: 12px&quot;&gt;Navigate to welcompage&lt;/span&gt;" style="edgeLabel;html=1;align=center;verticalAlign=middle;resizable=0;points=[];" vertex="1" connectable="0" parent="M-KNJrDklRf5NZTeeunS-29">
          <mxGeometry x="-0.1429" relative="1" as="geometry">
            <mxPoint as="offset" />
          </mxGeometry>
        </mxCell>
        <mxCell id="M-KNJrDklRf5NZTeeunS-32" value="" style="endArrow=classic;html=1;exitX=0.5;exitY=1;exitDx=0;exitDy=0;entryX=0.5;entryY=0;entryDx=0;entryDy=0;startArrow=none;" edge="1" parent="1" source="M-KNJrDklRf5NZTeeunS-30" target="M-KNJrDklRf5NZTeeunS-16">
          <mxGeometry width="50" height="50" relative="1" as="geometry">
            <mxPoint x="750" y="450" as="sourcePoint" />
            <mxPoint x="750" y="530" as="targetPoint" />
          </mxGeometry>
        </mxCell>
        <mxCell id="M-KNJrDklRf5NZTeeunS-79" value="Navigate to Login Page" style="edgeLabel;html=1;align=center;verticalAlign=middle;resizable=0;points=[];fontSize=12;" vertex="1" connectable="0" parent="M-KNJrDklRf5NZTeeunS-32">
          <mxGeometry x="-0.184" y="-4" relative="1" as="geometry">
            <mxPoint as="offset" />
          </mxGeometry>
        </mxCell>
        <mxCell id="M-KNJrDklRf5NZTeeunS-33" value="Yes" style="text;html=1;strokeColor=none;fillColor=none;align=center;verticalAlign=middle;whiteSpace=wrap;rounded=0;" vertex="1" parent="1">
          <mxGeometry x="690" y="280" width="180" height="20" as="geometry" />
        </mxCell>
        <mxCell id="M-KNJrDklRf5NZTeeunS-36" value="&lt;font style=&quot;font-size: 12px&quot;&gt;Navigate to Welcome page&lt;/font&gt;" style="endArrow=classic;html=1;exitX=1;exitY=0.5;exitDx=0;exitDy=0;entryX=0;entryY=0.5;entryDx=0;entryDy=0;" edge="1" parent="1" source="M-KNJrDklRf5NZTeeunS-30" target="M-KNJrDklRf5NZTeeunS-39">
          <mxGeometry width="50" height="50" relative="1" as="geometry">
            <mxPoint x="830" y="245" as="sourcePoint" />
            <mxPoint x="960" y="405" as="targetPoint" />
          </mxGeometry>
        </mxCell>
        <mxCell id="M-KNJrDklRf5NZTeeunS-37" value="Setup-Wizard-Page" style="ellipse;whiteSpace=wrap;html=1;" vertex="1" parent="1">
          <mxGeometry x="1610" y="650" width="120" height="80" as="geometry" />
        </mxCell>
        <mxCell id="M-KNJrDklRf5NZTeeunS-38" value="No" style="text;html=1;strokeColor=none;fillColor=none;align=center;verticalAlign=middle;whiteSpace=wrap;rounded=0;" vertex="1" parent="1">
          <mxGeometry x="750" y="445" width="180" height="20" as="geometry" />
        </mxCell>
        <mxCell id="M-KNJrDklRf5NZTeeunS-39" value="Setup-Wizar-Guard&lt;br&gt;(setup-wizard.guard.ts)" style="rounded=0;whiteSpace=wrap;html=1;" vertex="1" parent="1">
          <mxGeometry x="1035" y="450" width="170" height="60" as="geometry" />
        </mxCell>
        <mxCell id="M-KNJrDklRf5NZTeeunS-41" value="Response is &quot;up&quot;?" style="rhombus;whiteSpace=wrap;html=1;" vertex="1" parent="1">
          <mxGeometry x="295" y="35" width="140" height="90" as="geometry" />
        </mxCell>
        <mxCell id="M-KNJrDklRf5NZTeeunS-42" value="&lt;font style=&quot;font-size: 12px&quot;&gt;Navigate to Welcome Page&lt;/font&gt;" style="endArrow=classic;html=1;exitX=0.5;exitY=1;exitDx=0;exitDy=0;entryX=0.5;entryY=0;entryDx=0;entryDy=0;" edge="1" parent="1" source="M-KNJrDklRf5NZTeeunS-41" target="M-KNJrDklRf5NZTeeunS-12">
          <mxGeometry width="50" height="50" relative="1" as="geometry">
            <mxPoint x="362.5" y="150" as="sourcePoint" />
            <mxPoint x="320" y="240" as="targetPoint" />
          </mxGeometry>
        </mxCell>
        <mxCell id="M-KNJrDklRf5NZTeeunS-30" value="Is user exists?" style="rhombus;whiteSpace=wrap;html=1;" vertex="1" parent="1">
          <mxGeometry x="680" y="435" width="140" height="90" as="geometry" />
        </mxCell>
        <mxCell id="M-KNJrDklRf5NZTeeunS-49" style="edgeStyle=orthogonalEdgeStyle;rounded=0;orthogonalLoop=1;jettySize=auto;html=1;exitX=0.5;exitY=1;exitDx=0;exitDy=0;" edge="1" parent="1" source="M-KNJrDklRf5NZTeeunS-38" target="M-KNJrDklRf5NZTeeunS-38">
          <mxGeometry relative="1" as="geometry" />
        </mxCell>
        <mxCell id="M-KNJrDklRf5NZTeeunS-50" value="Yes" style="text;html=1;strokeColor=none;fillColor=none;align=center;verticalAlign=middle;whiteSpace=wrap;rounded=0;" vertex="1" parent="1">
          <mxGeometry x="690" y="530" width="180" height="20" as="geometry" />
        </mxCell>
        <mxCell id="M-KNJrDklRf5NZTeeunS-51" value="&lt;font style=&quot;font-size: 12px&quot;&gt;Call /ocmconsole/up&amp;nbsp;&lt;/font&gt;" style="endArrow=classic;html=1;exitX=1;exitY=0.5;exitDx=0;exitDy=0;entryX=0;entryY=0.5;entryDx=0;entryDy=0;" edge="1" parent="1" source="M-KNJrDklRf5NZTeeunS-6" target="M-KNJrDklRf5NZTeeunS-41">
          <mxGeometry width="50" height="50" relative="1" as="geometry">
            <mxPoint x="390" y="215" as="sourcePoint" />
            <mxPoint x="395" y="280" as="targetPoint" />
          </mxGeometry>
        </mxCell>
        <mxCell id="M-KNJrDklRf5NZTeeunS-52" value="Yes" style="text;html=1;strokeColor=none;fillColor=none;align=center;verticalAlign=middle;whiteSpace=wrap;rounded=0;" vertex="1" parent="1">
          <mxGeometry x="340" y="40" width="180" height="20" as="geometry" />
        </mxCell>
        <mxCell id="M-KNJrDklRf5NZTeeunS-58" value="&#xa;&#xa;&lt;span style=&quot;color: rgb(0, 0, 0); font-family: helvetica; font-size: 12px; font-style: normal; font-weight: 400; letter-spacing: normal; text-align: center; text-indent: 0px; text-transform: none; word-spacing: 0px; background-color: rgb(255, 255, 255); display: inline; float: none;&quot;&gt;Response is &quot;up&quot;?&lt;/span&gt;&#xa;&#xa;" style="rhombus;whiteSpace=wrap;html=1;" vertex="1" parent="1">
          <mxGeometry x="295" y="435" width="140" height="90" as="geometry" />
        </mxCell>
        <mxCell id="M-KNJrDklRf5NZTeeunS-59" value="&lt;font style=&quot;font-size: 12px&quot;&gt;Call /ocmconsole/up&lt;/font&gt;" style="endArrow=classic;html=1;exitX=0.5;exitY=1;exitDx=0;exitDy=0;entryX=0.5;entryY=0;entryDx=0;entryDy=0;" edge="1" parent="1" source="M-KNJrDklRf5NZTeeunS-12" target="M-KNJrDklRf5NZTeeunS-58">
          <mxGeometry width="50" height="50" relative="1" as="geometry">
            <mxPoint x="375" y="135" as="sourcePoint" />
            <mxPoint x="375" y="270" as="targetPoint" />
          </mxGeometry>
        </mxCell>
        <mxCell id="M-KNJrDklRf5NZTeeunS-68" value="&lt;font style=&quot;font-size: 12px&quot;&gt;Navigate to Login Page&lt;/font&gt;" style="endArrow=classic;html=1;exitX=0.5;exitY=1;exitDx=0;exitDy=0;entryX=0;entryY=0.5;entryDx=0;entryDy=0;" edge="1" parent="1" source="M-KNJrDklRf5NZTeeunS-58" target="M-KNJrDklRf5NZTeeunS-16">
          <mxGeometry relative="1" as="geometry">
            <mxPoint x="610" y="360" as="sourcePoint" />
            <mxPoint x="710" y="360" as="targetPoint" />
          </mxGeometry>
        </mxCell>
        <mxCell id="M-KNJrDklRf5NZTeeunS-70" value="Yes" style="text;html=1;strokeColor=none;fillColor=none;align=center;verticalAlign=middle;whiteSpace=wrap;rounded=0;" vertex="1" parent="1">
          <mxGeometry x="290" y="550" width="180" height="20" as="geometry" />
        </mxCell>
        <mxCell id="M-KNJrDklRf5NZTeeunS-71" value="No" style="text;html=1;strokeColor=none;fillColor=none;align=center;verticalAlign=middle;whiteSpace=wrap;rounded=0;" vertex="1" parent="1">
          <mxGeometry x="310" y="135" width="180" height="20" as="geometry" />
        </mxCell>
        <mxCell id="M-KNJrDklRf5NZTeeunS-74" value="" style="endArrow=none;html=1;exitX=1;exitY=0.5;exitDx=0;exitDy=0;" edge="1" parent="1" source="M-KNJrDklRf5NZTeeunS-58">
          <mxGeometry width="50" height="50" relative="1" as="geometry">
            <mxPoint x="630" y="380" as="sourcePoint" />
            <mxPoint x="560" y="480" as="targetPoint" />
          </mxGeometry>
        </mxCell>
        <mxCell id="M-KNJrDklRf5NZTeeunS-75" value="" style="endArrow=classic;html=1;entryX=1;entryY=0.5;entryDx=0;entryDy=0;" edge="1" parent="1" target="M-KNJrDklRf5NZTeeunS-12">
          <mxGeometry width="50" height="50" relative="1" as="geometry">
            <mxPoint x="560" y="300" as="sourcePoint" />
            <mxPoint x="560" y="320" as="targetPoint" />
          </mxGeometry>
        </mxCell>
        <mxCell id="M-KNJrDklRf5NZTeeunS-76" value="" style="endArrow=none;html=1;" edge="1" parent="1">
          <mxGeometry width="50" height="50" relative="1" as="geometry">
            <mxPoint x="560" y="480" as="sourcePoint" />
            <mxPoint x="560" y="300" as="targetPoint" />
          </mxGeometry>
        </mxCell>
        <mxCell id="M-KNJrDklRf5NZTeeunS-77" value="No" style="text;html=1;strokeColor=none;fillColor=none;align=center;verticalAlign=middle;whiteSpace=wrap;rounded=0;" vertex="1" parent="1">
          <mxGeometry x="390" y="450" width="180" height="20" as="geometry" />
        </mxCell>
        <mxCell id="M-KNJrDklRf5NZTeeunS-80" value="Is user exists?" style="rhombus;whiteSpace=wrap;html=1;" vertex="1" parent="1">
          <mxGeometry x="1240" y="645" width="140" height="90" as="geometry" />
        </mxCell>
        <mxCell id="M-KNJrDklRf5NZTeeunS-87" value="" style="endArrow=classic;html=1;exitX=0;exitY=0.5;exitDx=0;exitDy=0;startArrow=none;entryX=1;entryY=0.5;entryDx=0;entryDy=0;" edge="1" parent="1" source="M-KNJrDklRf5NZTeeunS-80" target="M-KNJrDklRf5NZTeeunS-16">
          <mxGeometry width="50" height="50" relative="1" as="geometry">
            <mxPoint x="760" y="535" as="sourcePoint" />
            <mxPoint x="1530" y="650" as="targetPoint" />
          </mxGeometry>
        </mxCell>
        <mxCell id="M-KNJrDklRf5NZTeeunS-89" value="Text" style="edgeLabel;html=1;align=center;verticalAlign=middle;resizable=0;points=[];fontSize=12;" vertex="1" connectable="0" parent="M-KNJrDklRf5NZTeeunS-87">
          <mxGeometry x="-0.168" y="3" relative="1" as="geometry">
            <mxPoint as="offset" />
          </mxGeometry>
        </mxCell>
        <mxCell id="M-KNJrDklRf5NZTeeunS-90" value="Navigate to Login Page" style="edgeLabel;html=1;align=center;verticalAlign=middle;resizable=0;points=[];fontSize=12;" vertex="1" connectable="0" parent="M-KNJrDklRf5NZTeeunS-87">
          <mxGeometry x="-0.2363" y="2" relative="1" as="geometry">
            <mxPoint as="offset" />
          </mxGeometry>
        </mxCell>
        <mxCell id="M-KNJrDklRf5NZTeeunS-91" value="" style="endArrow=none;html=1;fontSize=12;entryX=1;entryY=0.5;entryDx=0;entryDy=0;" edge="1" parent="1" target="M-KNJrDklRf5NZTeeunS-39">
          <mxGeometry width="50" height="50" relative="1" as="geometry">
            <mxPoint x="1310" y="480" as="sourcePoint" />
            <mxPoint x="1060" y="410" as="targetPoint" />
          </mxGeometry>
        </mxCell>
        <mxCell id="M-KNJrDklRf5NZTeeunS-92" value="" style="endArrow=classic;html=1;fontSize=12;" edge="1" parent="1">
          <mxGeometry relative="1" as="geometry">
            <mxPoint x="1310" y="480" as="sourcePoint" />
            <mxPoint x="1310" y="650" as="targetPoint" />
          </mxGeometry>
        </mxCell>
        <mxCell id="M-KNJrDklRf5NZTeeunS-93" value="Call api to check existing user" style="edgeLabel;resizable=0;html=1;align=center;verticalAlign=middle;" connectable="0" vertex="1" parent="M-KNJrDklRf5NZTeeunS-92">
          <mxGeometry relative="1" as="geometry" />
        </mxCell>
        <mxCell id="M-KNJrDklRf5NZTeeunS-94" value="Yes" style="text;html=1;strokeColor=none;fillColor=none;align=center;verticalAlign=middle;whiteSpace=wrap;rounded=0;" vertex="1" parent="1">
          <mxGeometry x="1110" y="660" width="180" height="20" as="geometry" />
        </mxCell>
        <mxCell id="M-KNJrDklRf5NZTeeunS-95" value="No" style="text;html=1;strokeColor=none;fillColor=none;align=center;verticalAlign=middle;whiteSpace=wrap;rounded=0;" vertex="1" parent="1">
          <mxGeometry x="1310" y="650" width="180" height="20" as="geometry" />
        </mxCell>
        <mxCell id="M-KNJrDklRf5NZTeeunS-96" value="" style="endArrow=classic;html=1;fontSize=12;exitX=1;exitY=0.5;exitDx=0;exitDy=0;entryX=0;entryY=0.5;entryDx=0;entryDy=0;" edge="1" parent="1" source="M-KNJrDklRf5NZTeeunS-80" target="M-KNJrDklRf5NZTeeunS-37">
          <mxGeometry relative="1" as="geometry">
            <mxPoint x="950" y="510" as="sourcePoint" />
            <mxPoint x="1490" y="690" as="targetPoint" />
          </mxGeometry>
        </mxCell>
        <mxCell id="M-KNJrDklRf5NZTeeunS-97" value="Navigate to Setup Wizard Page" style="edgeLabel;resizable=0;html=1;align=center;verticalAlign=middle;" connectable="0" vertex="1" parent="M-KNJrDklRf5NZTeeunS-96">
          <mxGeometry relative="1" as="geometry" />
        </mxCell>
        <mxCell id="M-KNJrDklRf5NZTeeunS-147" value="User&lt;br&gt;" style="shape=umlActor;verticalLabelPosition=bottom;verticalAlign=top;html=1;outlineConnect=0;" vertex="1" parent="1">
          <mxGeometry x="-30" y="-305" width="30" height="60" as="geometry" />
        </mxCell>
        <mxCell id="M-KNJrDklRf5NZTeeunS-148" value="Navigate to Overview" style="endArrow=classic;html=1;fontSize=12;exitX=0.5;exitY=0.5;exitDx=0;exitDy=0;exitPerimeter=0;entryX=0;entryY=0.5;entryDx=0;entryDy=0;" edge="1" parent="1" source="M-KNJrDklRf5NZTeeunS-147" target="M-KNJrDklRf5NZTeeunS-149">
          <mxGeometry relative="1" as="geometry">
            <mxPoint x="-10" y="-275.5" as="sourcePoint" />
            <mxPoint x="210" y="-275.5" as="targetPoint" />
          </mxGeometry>
        </mxCell>
        <mxCell id="M-KNJrDklRf5NZTeeunS-149" value="Layout Guard&lt;br&gt;(layout.guard.ts)" style="rounded=0;whiteSpace=wrap;html=1;" vertex="1" parent="1">
          <mxGeometry x="220" y="-305" width="170" height="60" as="geometry" />
        </mxCell>
        <mxCell id="M-KNJrDklRf5NZTeeunS-150" value="Is logged?" style="rhombus;whiteSpace=wrap;html=1;" vertex="1" parent="1">
          <mxGeometry x="670" y="-320" width="140" height="90" as="geometry" />
        </mxCell>
        <mxCell id="M-KNJrDklRf5NZTeeunS-151" value="Validate User&#39;s information in Localstorage" style="endArrow=classic;html=1;fontSize=12;exitX=1;exitY=0.5;exitDx=0;exitDy=0;entryX=0;entryY=0.5;entryDx=0;entryDy=0;" edge="1" parent="1" source="M-KNJrDklRf5NZTeeunS-149" target="M-KNJrDklRf5NZTeeunS-150">
          <mxGeometry relative="1" as="geometry">
            <mxPoint x="310" y="-285" as="sourcePoint" />
            <mxPoint x="410" y="-285" as="targetPoint" />
          </mxGeometry>
        </mxCell>
        <mxCell id="M-KNJrDklRf5NZTeeunS-152" value="Navigate To Overview" style="endArrow=classic;html=1;fontSize=12;exitX=1;exitY=0.5;exitDx=0;exitDy=0;entryX=0;entryY=0.5;entryDx=0;entryDy=0;" edge="1" parent="1" source="M-KNJrDklRf5NZTeeunS-150" target="M-KNJrDklRf5NZTeeunS-157">
          <mxGeometry relative="1" as="geometry">
            <mxPoint x="400" y="-265" as="sourcePoint" />
            <mxPoint x="1020" y="-275" as="targetPoint" />
          </mxGeometry>
        </mxCell>
        <mxCell id="M-KNJrDklRf5NZTeeunS-153" value="Yes" style="text;html=1;strokeColor=none;fillColor=none;align=center;verticalAlign=middle;whiteSpace=wrap;rounded=0;" vertex="1" parent="1">
          <mxGeometry x="740" y="-320" width="180" height="30" as="geometry" />
        </mxCell>
        <mxCell id="M-KNJrDklRf5NZTeeunS-154" value="No" style="text;html=1;strokeColor=none;fillColor=none;align=center;verticalAlign=middle;whiteSpace=wrap;rounded=0;" vertex="1" parent="1">
          <mxGeometry x="620" y="-225" width="180" height="30" as="geometry" />
        </mxCell>
        <mxCell id="M-KNJrDklRf5NZTeeunS-155" value="Navigate to login" style="endArrow=classic;html=1;fontSize=12;exitX=0.5;exitY=1;exitDx=0;exitDy=0;entryX=0.429;entryY=-0.017;entryDx=0;entryDy=0;entryPerimeter=0;" edge="1" parent="1" source="M-KNJrDklRf5NZTeeunS-150" target="M-KNJrDklRf5NZTeeunS-9">
          <mxGeometry relative="1" as="geometry">
            <mxPoint x="400" y="-265" as="sourcePoint" />
            <mxPoint x="740" y="-65" as="targetPoint" />
          </mxGeometry>
        </mxCell>
        <mxCell id="M-KNJrDklRf5NZTeeunS-157" value="Overview Page" style="ellipse;whiteSpace=wrap;html=1;" vertex="1" parent="1">
          <mxGeometry x="1040" y="-315" width="170" height="80" as="geometry" />
        </mxCell>
        <mxCell id="M-KNJrDklRf5NZTeeunS-241" value="Navigate to login" style="endArrow=classic;html=1;fontSize=12;entryX=1;entryY=0.25;entryDx=0;entryDy=0;" edge="1" parent="1" target="M-KNJrDklRf5NZTeeunS-9">
          <mxGeometry relative="1" as="geometry">
            <mxPoint x="1450" y="20" as="sourcePoint" />
            <mxPoint x="750.06" y="58.98000000000002" as="targetPoint" />
          </mxGeometry>
        </mxCell>
        <mxCell id="M-KNJrDklRf5NZTeeunS-243" value="No" style="text;html=1;strokeColor=none;fillColor=none;align=center;verticalAlign=middle;whiteSpace=wrap;rounded=0;sketch=0;direction=east;" vertex="1" parent="1">
          <mxGeometry x="1320" y="-70" width="180" height="30" as="geometry" />
        </mxCell>
        <mxCell id="M-KNJrDklRf5NZTeeunS-244" value="Yes" style="text;html=1;strokeColor=none;fillColor=none;align=center;verticalAlign=middle;whiteSpace=wrap;rounded=0;sketch=0;direction=east;" vertex="1" parent="1">
          <mxGeometry x="1320" y="-200" width="180" height="30" as="geometry" />
        </mxCell>
        <mxCell id="M-KNJrDklRf5NZTeeunS-247" value="" style="endArrow=none;html=1;fontSize=12;entryX=0.5;entryY=1;entryDx=0;entryDy=0;exitX=0.5;exitY=0;exitDx=0;exitDy=0;" edge="1" parent="1" source="M-KNJrDklRf5NZTeeunS-172" target="M-KNJrDklRf5NZTeeunS-161">
          <mxGeometry width="50" height="50" relative="1" as="geometry">
            <mxPoint x="1447" y="70" as="sourcePoint" />
            <mxPoint x="1280" y="-130" as="targetPoint" />
          </mxGeometry>
        </mxCell>
        <mxCell id="M-KNJrDklRf5NZTeeunS-251" value="User&lt;br&gt;" style="shape=umlActor;verticalLabelPosition=bottom;verticalAlign=top;html=1;outlineConnect=0;" vertex="1" parent="1">
          <mxGeometry x="-320" y="780" width="130" height="340" as="geometry" />
        </mxCell>
        <mxCell id="M-KNJrDklRf5NZTeeunS-253" value="SecondaryContentGuard&lt;br&gt;(secondary-content.guard.ts)" style="rounded=0;whiteSpace=wrap;html=1;" vertex="1" parent="1">
          <mxGeometry x="390" y="760" width="170" height="360" as="geometry" />
        </mxCell>
        <mxCell id="M-KNJrDklRf5NZTeeunS-254" value="Navigate to create product group (path: &lt;b&gt;product-groups/create&lt;/b&gt;)" style="endArrow=classic;html=1;fontSize=12;exitX=0.75;exitY=0.1;exitDx=0;exitDy=0;exitPerimeter=0;entryX=-0.01;entryY=0.14;entryDx=0;entryDy=0;entryPerimeter=0;" edge="1" parent="1" source="M-KNJrDklRf5NZTeeunS-251" target="M-KNJrDklRf5NZTeeunS-253">
          <mxGeometry relative="1" as="geometry">
            <mxPoint x="-175" y="970" as="sourcePoint" />
            <mxPoint x="-75" y="970" as="targetPoint" />
          </mxGeometry>
        </mxCell>
        <mxCell id="M-KNJrDklRf5NZTeeunS-257" value="Navigate to product group assign (path: &lt;b&gt;product-groups/assign/:id&lt;/b&gt;)" style="endArrow=classic;html=1;fontSize=12;exitX=0.5;exitY=0;exitDx=0;exitDy=0;exitPerimeter=0;entryX=-0.002;entryY=0.062;entryDx=0;entryDy=0;entryPerimeter=0;" edge="1" parent="1" source="M-KNJrDklRf5NZTeeunS-251" target="M-KNJrDklRf5NZTeeunS-253">
          <mxGeometry relative="1" as="geometry">
            <mxPoint x="-195" y="960" as="sourcePoint" />
            <mxPoint x="220" y="960" as="targetPoint" />
          </mxGeometry>
        </mxCell>
        <mxCell id="M-KNJrDklRf5NZTeeunS-258" value="Navigate to create new rebranding (path: &lt;b&gt;rebranding/create&lt;/b&gt;)" style="endArrow=classic;html=1;fontSize=12;" edge="1" parent="1">
          <mxGeometry relative="1" as="geometry">
            <mxPoint x="-180" y="920" as="sourcePoint" />
            <mxPoint x="390" y="918" as="targetPoint" />
            <Array as="points">
              <mxPoint x="230" y="918" />
            </Array>
          </mxGeometry>
        </mxCell>
        <mxCell id="M-KNJrDklRf5NZTeeunS-263" value="Navigate to add new user directory (path: &lt;b&gt;user-management/user-directory/add)&lt;/b&gt;" style="endArrow=classic;html=1;fontSize=12;entryX=0.006;entryY=0.909;entryDx=0;entryDy=0;entryPerimeter=0;" edge="1" parent="1" target="M-KNJrDklRf5NZTeeunS-253">
          <mxGeometry relative="1" as="geometry">
            <mxPoint x="-180" y="1090" as="sourcePoint" />
            <mxPoint x="248.29999999999973" y="820.3999999999999" as="targetPoint" />
          </mxGeometry>
        </mxCell>
        <mxCell id="M-KNJrDklRf5NZTeeunS-264" value="Nav to add new user-and-group (path: &lt;b&gt;user-management/user-and-group/add&lt;/b&gt;)" style="endArrow=classic;html=1;fontSize=12;entryX=0.002;entryY=0.824;entryDx=0;entryDy=0;entryPerimeter=0;" edge="1" parent="1" target="M-KNJrDklRf5NZTeeunS-253">
          <mxGeometry relative="1" as="geometry">
            <mxPoint x="-180" y="1060" as="sourcePoint" />
            <mxPoint x="216.94000000000005" y="1030.08" as="targetPoint" />
          </mxGeometry>
        </mxCell>
        <mxCell id="M-KNJrDklRf5NZTeeunS-265" value="Navigate to edit user directory (path: &lt;b&gt;user-management/user-directory/edit/:id&lt;/b&gt;)" style="endArrow=classic;html=1;fontSize=12;entryX=0;entryY=1;entryDx=0;entryDy=0;" edge="1" parent="1" target="M-KNJrDklRf5NZTeeunS-253">
          <mxGeometry relative="1" as="geometry">
            <mxPoint x="-180" y="1120" as="sourcePoint" />
            <mxPoint x="256.94000000000005" y="1078.08" as="targetPoint" />
          </mxGeometry>
        </mxCell>
        <mxCell id="M-KNJrDklRf5NZTeeunS-267" value="Is readonly User?" style="rhombus;whiteSpace=wrap;html=1;" vertex="1" parent="1">
          <mxGeometry x="720" y="875" width="140" height="90" as="geometry" />
        </mxCell>
        <mxCell id="M-KNJrDklRf5NZTeeunS-269" value="Login-Page" style="ellipse;whiteSpace=wrap;html=1;" vertex="1" parent="1">
          <mxGeometry x="1100" y="875" width="120" height="80" as="geometry" />
        </mxCell>
        <mxCell id="M-KNJrDklRf5NZTeeunS-270" value="Navigate to Destination Page" style="ellipse;whiteSpace=wrap;html=1;" vertex="1" parent="1">
          <mxGeometry x="730" y="1040" width="120" height="80" as="geometry" />
        </mxCell>
        <mxCell id="M-KNJrDklRf5NZTeeunS-271" value="" style="endArrow=classic;html=1;fontSize=12;exitX=1.003;exitY=0.442;exitDx=0;exitDy=0;exitPerimeter=0;entryX=0;entryY=0.5;entryDx=0;entryDy=0;" edge="1" parent="1" source="M-KNJrDklRf5NZTeeunS-253" target="M-KNJrDklRf5NZTeeunS-267">
          <mxGeometry width="50" height="50" relative="1" as="geometry">
            <mxPoint x="800" y="870" as="sourcePoint" />
            <mxPoint x="850" y="820" as="targetPoint" />
          </mxGeometry>
        </mxCell>
        <mxCell id="M-KNJrDklRf5NZTeeunS-272" value="Navigate to Page Not Found" style="endArrow=classic;html=1;fontSize=12;entryX=0;entryY=0.5;entryDx=0;entryDy=0;exitX=1;exitY=0.5;exitDx=0;exitDy=0;" edge="1" parent="1" source="M-KNJrDklRf5NZTeeunS-267" target="M-KNJrDklRf5NZTeeunS-269">
          <mxGeometry width="50" height="50" relative="1" as="geometry">
            <mxPoint x="860" y="910" as="sourcePoint" />
            <mxPoint x="910" y="860" as="targetPoint" />
          </mxGeometry>
        </mxCell>
        <mxCell id="M-KNJrDklRf5NZTeeunS-274" value="" style="endArrow=classic;html=1;fontSize=12;entryX=0.5;entryY=0;entryDx=0;entryDy=0;exitX=0.5;exitY=1;exitDx=0;exitDy=0;" edge="1" parent="1" source="M-KNJrDklRf5NZTeeunS-267" target="M-KNJrDklRf5NZTeeunS-270">
          <mxGeometry width="50" height="50" relative="1" as="geometry">
            <mxPoint x="870" y="925.0000000000002" as="sourcePoint" />
            <mxPoint x="1000.0000000000082" y="925.0000000000002" as="targetPoint" />
          </mxGeometry>
        </mxCell>
        <mxCell id="M-KNJrDklRf5NZTeeunS-275" value="Yes" style="text;html=1;strokeColor=none;fillColor=none;align=center;verticalAlign=middle;whiteSpace=wrap;rounded=0;" vertex="1" parent="1">
          <mxGeometry x="780" y="875" width="180" height="20" as="geometry" />
        </mxCell>
        <mxCell id="M-KNJrDklRf5NZTeeunS-276" value="No" style="text;html=1;strokeColor=none;fillColor=none;align=center;verticalAlign=middle;whiteSpace=wrap;rounded=0;" vertex="1" parent="1">
          <mxGeometry x="730" y="970" width="180" height="20" as="geometry" />
        </mxCell>
        <mxCell id="M-KNJrDklRf5NZTeeunS-277" value="Page" style="ellipse;whiteSpace=wrap;html=1;" vertex="1" parent="1">
          <mxGeometry x="1505" y="795" width="120" height="80" as="geometry" />
        </mxCell>
        <mxCell id="M-KNJrDklRf5NZTeeunS-279" value="Guard" style="rounded=0;whiteSpace=wrap;html=1;fontSize=12;" vertex="1" parent="1">
          <mxGeometry x="1505" y="910" width="120" height="60" as="geometry" />
        </mxCell>
        <mxCell id="M-KNJrDklRf5NZTeeunS-281" value="" style="endArrow=classic;html=1;fontSize=12;" edge="1" parent="1">
          <mxGeometry relative="1" as="geometry">
            <mxPoint x="1490" y="1040" as="sourcePoint" />
            <mxPoint x="1670" y="1040" as="targetPoint" />
          </mxGeometry>
        </mxCell>
        <mxCell id="M-KNJrDklRf5NZTeeunS-282" value="action" style="edgeLabel;resizable=0;html=1;align=center;verticalAlign=middle;fontSize=15;" connectable="0" vertex="1" parent="M-KNJrDklRf5NZTeeunS-281">
          <mxGeometry relative="1" as="geometry" />
        </mxCell>
        <mxCell id="M-KNJrDklRf5NZTeeunS-284" value="Conditional" style="rhombus;whiteSpace=wrap;html=1;" vertex="1" parent="1">
          <mxGeometry x="1505" y="1070" width="140" height="90" as="geometry" />
        </mxCell>
        <mxCell id="M-KNJrDklRf5NZTeeunS-287" value="" style="swimlane;startSize=0;fontSize=15;" vertex="1" parent="1">
          <mxGeometry x="1465" y="755" width="225" height="455" as="geometry" />
        </mxCell>
      </root>
    </mxGraphModel>
  </diagram>
</mxfile>
